<?xml version="1.0" encoding="utf-8"?>
<!-- Generator: Adobe Illustrator 26.0.1, SVG Export Plug-In . SVG Version: 6.00 Build 0)  -->
<svg version="1.1" id="Layer_1" xmlns="http://www.w3.org/2000/svg" xmlns:xlink="http://www.w3.org/1999/xlink" x="0px" y="0px"
	 viewBox="0 0 763.42 326.24" style="enable-background:new 0 0 763.42 326.24;" xml:space="preserve">
<style type="text/css">
	.st0{fill:#FFFFFF;}
</style>
<g>
	<g>
		<g>
			<path class="st0" d="M96.53,114.85h103.68V6.7h96.53v312.83h-96.53V201.55H96.53v117.98H0V6.7h96.53V114.85z"/>
		</g>
	</g>
	<g>
		<g>
			<path class="st0" d="M366.73,217.64c22.35,23.69,51.39,30.39,66.14,30.39c15.19,0,27.26-8.49,27.26-23.24
				c0-32.62-130.05-7.6-130.05-130.05C330.08,45.58,368.51,0,443.15,0c45.14,0,71.06,14.3,107.26,45.14L501.69,101
				c-22.35-18.77-36.65-26.81-58.99-26.81c-13.85,0-21.45,3.58-21.45,17.43c0,33.96,130.5,12.51,130.5,133.18
				c0,51.84-32.18,101.45-118.88,101.45c-40.67,0-78.21-13.85-114.85-52.73L366.73,217.64z"/>
		</g>
	</g>
	<g>
		<g>
			<path class="st0" d="M763.42,319.54H576.17V6.7h187.25v84.02H672.7V122h84.91v79.55H672.7v33.96h90.72V319.54z"/>
		</g>
	</g>
</g>
</svg>
