<?xml version="1.0" encoding="utf-8"?>
<!-- Generator: Adobe Illustrator 26.3.1, SVG Export Plug-In . SVG Version: 6.00 Build 0)  -->
<svg version="1.1" id="Layer_1" xmlns="http://www.w3.org/2000/svg" xmlns:xlink="http://www.w3.org/1999/xlink" x="0px" y="0px"
	 viewBox="0 0 51.02 51.02" style="enable-background:new 0 0 51.02 51.02;" xml:space="preserve">
<style type="text/css">
	.st0{fill:#102D69;}
	.st1{fill:#FFFFFF;}
</style>
<circle class="st0" cx="25.51" cy="25.51" r="24.87"/>
<g>
	<g>
		<path class="st1" d="M30.06,35.12L30.06,35.12L30.06,35.12h-2.43h0V27.7h-2.8v7.43h0v0h-2.14V15.21h0v0l2.2,0
			c0.82,0,2.07,0.18,2.96,1.28c0.46,0.56,0.74,1.3,0.84,2.04h0c0,0,0,0,0,0h-3.86v1.1h3.89c-0.02,0.39-0.07,0.82-0.23,1.26
			c-0.13,0.35-0.33,0.71-0.63,1.09c-0.61,0.76-1.61,1.47-3.03,1.47H24.8v1.11c3.78,0,5.25,2.51,5.25,7.11V35.12z M33.1,32.08
			c0-4.09-1.32-6.83-4.74-8.04c1.08-0.44,1.73-1.12,2.17-1.64c0.82-0.95,1.16-2.1,1.16-3.2c0-0.89-0.24-2.65-1.8-3.87
			c-1.07-0.82-2.01-1.22-4.27-1.22h-1.14c-0.04,0-0.07,0-0.11,0h-4.71v22.25H33.1V32.08z"/>
		<g>
			<path class="st1" d="M19.09,45.86l0.53-1.44l-1.87-0.69l-0.53,1.44l-0.64-0.23l1.32-3.61l0.64,0.23l-0.58,1.57l1.87,0.69
				l0.58-1.57l0.64,0.23l-1.32,3.61L19.09,45.86z"/>
			<path class="st1" d="M14.5,43.85l-0.56-0.39l1.53-2.17l-3.16,1.02l-0.47-0.33l2.22-3.14l0.56,0.39l-1.53,2.16l3.16-1.01
				l0.47,0.33L14.5,43.85z"/>
			<path class="st1" d="M9.88,40.08l0.93-2.19l-2.29,0.59l-0.5-0.59l4.14-1.07l0.49,0.58l-1.02,0.26l-1.26,3L9.88,40.08z"/>
			<path class="st1" d="M5.42,32.84c-0.21-0.55,0.03-1.11,0.52-1.29c0.38-0.14,0.78-0.04,1.03,0.23c-0.07-0.56,0.23-0.94,0.64-1.09
				c0.55-0.21,1.14,0.1,1.37,0.7l0.49,1.31l-3.6,1.35L5.42,32.84z M7.13,32.85L6.96,32.4c-0.11-0.29-0.37-0.4-0.66-0.3
				c-0.3,0.11-0.39,0.4-0.27,0.72l0.14,0.38L7.13,32.85z M8.7,32.26l-0.17-0.46c-0.13-0.35-0.42-0.56-0.76-0.44
				c-0.31,0.12-0.43,0.48-0.29,0.83l0.17,0.46L8.7,32.26z"/>
			<path class="st1" d="M7.81,24.4l0.39,4.84l-3.83,0.31l-0.05-0.68l3.2-0.26l-0.11-1.4l-3.2,0.26l-0.05-0.68l3.2-0.26l-0.11-1.4
				l-3.2,0.26l-0.05-0.68L7.81,24.4z"/>
			<path class="st1" d="M6.03,21.52l0.37-1.59c-0.58,0-1.09,0.39-1.23,1c-0.11,0.46,0.03,0.89,0.31,1.19l-0.5,0.44
				c-0.42-0.47-0.61-1.13-0.46-1.79c0.25-1.08,1.32-1.75,2.4-1.5c1.08,0.25,1.75,1.32,1.5,2.4c-0.15,0.66-0.61,1.17-1.2,1.4
				l-0.25-0.62c0.39-0.15,0.7-0.48,0.8-0.94c0.16-0.67-0.2-1.28-0.8-1.5L6.6,21.65L6.03,21.52z"/>
			<path class="st1" d="M11.65,9.07l0.94,1.21l1.58-1.22l-0.94-1.21l0.54-0.42l2.35,3.04l-0.54,0.42l-1.02-1.33l-1.58,1.22L14,12.11
				l-0.54,0.42l-2.35-3.04L11.65,9.07z"/>
			<path class="st1" d="M15.79,6.26L16.42,6l1.02,2.45l0.82-3.21l0.53-0.22l1.48,3.55l-0.63,0.26l-1.02-2.44L17.8,9.59l-0.53,0.22
				L15.79,6.26z"/>
			<path class="st1" d="M21.74,4.27l1.15,1.43l0.31-0.03l-0.15-1.53l0.68-0.07l0.15,1.52l0.31-0.03l0.85-1.62l0.79-0.08l-1.05,1.95
				c0.5,0.13,0.69,1.33,1.35,1.27c0.05-0.01,0.11-0.03,0.17-0.06l0.06,0.65c-0.11,0.04-0.21,0.07-0.31,0.08
				c-1.04,0.1-1.35-1.57-1.82-1.55l-0.27,0.03l0.16,1.67l-0.68,0.07L23.26,6.3l-0.27,0.03c-0.46,0.07-0.44,1.78-1.48,1.88
				c-0.1,0.01-0.21,0-0.32-0.02l-0.06-0.65c0.07,0.02,0.12,0.03,0.18,0.02c0.65-0.06,0.61-1.29,1.07-1.51l-1.42-1.7L21.74,4.27z"/>
			<path class="st1" d="M28.75,4.22l-0.3,1.5l1.95,0.39l0.3-1.5l0.67,0.13l-0.75,3.77l-0.67-0.13l0.33-1.64l-1.95-0.39l-0.33,1.64
				l-0.67-0.13l0.75-3.77L28.75,4.22z"/>
			<path class="st1" d="M33.59,5.51l0.61,0.3l-1.18,2.37l2.97-1.49l0.51,0.25l-1.71,3.44l-0.61-0.3l1.18-2.37l-2.96,1.48l-0.51-0.25
				L33.59,5.51z"/>
			<path class="st1" d="M38.94,8.71l-1.75,1.99l3.25-0.68l0.43,0.38l-2.54,2.89l-0.51-0.45l1.75-1.99l-3.25,0.67l-0.43-0.38
				l2.54-2.89L38.94,8.71z M39.87,8.16c-0.08,0.31-0.03,0.47,0.19,0.66c0.23,0.2,0.39,0.23,0.69,0.11l0.18,0.44
				c-0.45,0.24-0.83,0.1-1.17-0.2c-0.34-0.3-0.52-0.67-0.35-1.13L39.87,8.16z"/>
			<path class="st1" d="M44.16,14.83l-1.37,0.69l0.9,1.78l1.37-0.69l0.31,0.61l-3.43,1.74l-0.31-0.61l1.49-0.76l-0.9-1.78
				l-1.49,0.76l-0.31-0.61l3.43-1.74L44.16,14.83z"/>
			<path class="st1" d="M46.61,21.31c0.21,1.08-0.5,2.12-1.59,2.33c-1.09,0.21-2.13-0.48-2.34-1.57c-0.21-1.09,0.5-2.11,1.59-2.32
				C45.36,19.53,46.4,20.22,46.61,21.31z M43.33,21.94c0.15,0.76,0.83,1.15,1.56,1.01c0.73-0.14,1.22-0.76,1.07-1.52
				c-0.15-0.75-0.83-1.15-1.56-1.01C43.67,20.57,43.18,21.19,43.33,21.94z"/>
			<path class="st1" d="M46.88,26.76c-0.03,0.59-0.47,1-1,0.97c-0.4-0.02-0.73-0.27-0.85-0.63c-0.16,0.54-0.59,0.76-1.03,0.74
				c-0.59-0.03-1-0.55-0.97-1.19l0.08-1.39l3.84,0.22L46.88,26.76z M43.65,25.97l-0.03,0.49c-0.02,0.37,0.16,0.69,0.52,0.71
				c0.33,0.02,0.58-0.26,0.6-0.64l0.03-0.49L43.65,25.97z M45.33,26.06l-0.03,0.47c-0.02,0.31,0.18,0.52,0.48,0.54
				c0.32,0.02,0.52-0.21,0.54-0.55l0.02-0.4L45.33,26.06z"/>
			<path class="st1" d="M45.33,31.78l0.35-1.35l-3.11-0.81l0.17-0.66l3.72,0.97l-0.52,2.01L45.33,31.78z"/>
			<path class="st1" d="M44.62,35.26c-0.51,0.98-1.71,1.35-2.69,0.84c-0.99-0.51-1.38-1.7-0.87-2.68c0.51-0.99,1.7-1.35,2.69-0.84
				S45.13,34.28,44.62,35.26z M41.65,33.73c-0.36,0.69-0.07,1.42,0.6,1.76c0.66,0.34,1.43,0.16,1.78-0.53
				c0.35-0.68,0.06-1.41-0.6-1.76C42.76,32.86,42,33.05,41.65,33.73z"/>
			<path class="st1" d="M41.47,39.69c-0.48,0.54-1.26,0.59-1.79,0.12c-0.53-0.47-0.56-1.28-0.1-1.8l0.38-0.43l-0.98-0.87l0.45-0.51
				l2.88,2.55L41.47,39.69z M40.43,37.99l-0.33,0.37c-0.25,0.28-0.24,0.69,0.03,0.93c0.27,0.24,0.67,0.19,0.92-0.09l0.33-0.37
				L40.43,37.99z"/>
			<path class="st1" d="M37.7,43.12c-0.91,0.63-2.14,0.39-2.77-0.53c-0.63-0.91-0.41-2.15,0.5-2.78c0.91-0.63,2.14-0.38,2.77,0.53
				C38.82,41.26,38.61,42.49,37.7,43.12z M35.8,40.37c-0.64,0.44-0.73,1.22-0.3,1.84c0.42,0.62,1.19,0.81,1.82,0.37
				c0.63-0.44,0.72-1.22,0.3-1.83C37.19,40.13,36.43,39.93,35.8,40.37z"/>
			<path class="st1" d="M31.16,46.12l-1.06-3.03l-0.53,0.19l-0.5-1.43l0.6-0.21l0.29,0.83l2.77-0.97l-0.29-0.83l0.6-0.21l0.5,1.43
				l-0.42,0.15c-0.14,0.65-0.11,1.56,0.48,3.24L31.16,46.12z M32.45,42.27l-1.71,0.6l0.86,2.45l1.21-0.42
				C32.32,43.48,32.36,42.82,32.45,42.27z"/>
		</g>
		<path class="st1" d="M9.22,14.03c0.43,0.22,0.6,0.75,0.38,1.18l0,0c-0.22,0.43-0.75,0.6-1.18,0.38l0,0
			c-0.43-0.22-0.6-0.75-0.38-1.18l0,0c0.06-0.12,0.15-0.23,0.26-0.31l0,0C8.56,13.92,8.91,13.88,9.22,14.03z"/>
		<path class="st1" d="M25.37,44.53c0.01,0,0.01,0,0.02,0l0,0c0.01,0,0.01,0,0.02,0l0,0c0.48-0.06,0.92,0.29,0.98,0.77l0,0
			c0.06,0.48-0.28,0.92-0.77,0.98l0,0c-0.01,0-0.02,0-0.03,0l0,0c-0.01,0-0.01,0-0.02,0l0,0l0,0l0,0c-0.48,0.06-0.92-0.29-0.97-0.77
			l0,0c0-0.02,0-0.04-0.01-0.06l0,0C24.58,44.99,24.91,44.58,25.37,44.53z"/>
	</g>
	<path class="st1" d="M25.51,0C11.44,0,0,11.44,0,25.51c0,14.07,11.44,25.51,25.51,25.51c14.07,0,25.51-11.44,25.51-25.51
		C51.02,11.44,39.58,0,25.51,0z M25.51,50.7c-13.89,0-25.19-11.3-25.19-25.19c0-13.89,11.3-25.19,25.19-25.19
		c13.89,0,25.19,11.3,25.19,25.19C50.7,39.4,39.4,50.7,25.51,50.7z M25.51,0.32c-13.89,0-25.19,11.3-25.19,25.19
		c0,13.89,11.3,25.19,25.19,25.19c13.89,0,25.19-11.3,25.19-25.19C50.7,11.62,39.4,0.32,25.51,0.32z M25.51,50.38
		c-13.73,0-24.87-11.13-24.87-24.87S11.78,0.65,25.51,0.65c13.73,0,24.87,11.13,24.87,24.87S39.24,50.38,25.51,50.38z"/>
</g>
</svg>
