<?xml version="1.0" encoding="utf-8"?>
<!-- Generator: Adobe Illustrator 26.0.1, SVG Export Plug-In . SVG Version: 6.00 Build 0)  -->
<svg version="1.1" id="Layer_1" xmlns="http://www.w3.org/2000/svg" xmlns:xlink="http://www.w3.org/1999/xlink" x="0px" y="0px"
	 viewBox="0 0 2180.97 1850.78" style="enable-background:new 0 0 2180.97 1850.78;" xml:space="preserve">
<style type="text/css">
	.st0{fill:#FFFFFF;}
	.st1{fill:#102D69;}
</style>
<g>
	<path class="st0" d="M1964.72,1800.89l-142.42-475.64l-16.61-64.78c213.03-15.38,374.52-196.33,374.52-413.83
		C2180.2,456.15,2152.46,0,1881.62,0c-107.35,0-135.42,73.89-135.42,73.89s-83.98-3.15-171.06,28.51
		c-78.4,28.51-114.04,97.17-114.04,97.17l299.35,7.13c0,0,35.64,491.79-171.06,491.79c-206.69,0-49.89-648.59-392-648.59
		c-185.31,0-1197.39,0-1197.39,0s491.79,848.15,1475.36,848.15l-434.77,256.58L491.79,833.9c0,0-106.91,427.64,356.37,427.64
		c190.2,0,376.12,0,530.99,0l67.71,270.84l99.94-95.18l118.37,363.69h-211.18v49.89h726.99v-49.89H1964.72z M1579.97,1325.25
		l-16.34-63.71c20.53,0,39.86,0,57.84,0l67.71,270.84l99.94-95.18l118.37,363.69h-185.1L1579.97,1325.25z"/>
	
		<ellipse transform="matrix(0.7071 -0.7071 0.7071 0.7071 463.6024 1340.1826)" class="st1" cx="1849.54" cy="110.47" rx="32.07" ry="32.07"/>
</g>
</svg>
