<?xml version="1.0" encoding="utf-8"?>
<!-- Generator: Adobe Illustrator 26.0.1, SVG Export Plug-In . SVG Version: 6.00 Build 0)  -->
<svg version="1.1" id="Layer_1" xmlns="http://www.w3.org/2000/svg" xmlns:xlink="http://www.w3.org/1999/xlink" x="0px" y="0px"
	 viewBox="0 0 1657.87 1376.14" style="enable-background:new 0 0 1657.87 1376.14;" xml:space="preserve">
<style type="text/css">
	.st0{fill:none;}
	.st1{fill:#FFFFFF;}
	.st2{fill:#002F87;}
</style>
<g>
	<path class="st0" d="M1284.04,1164.85l-51.47-205.88c-13.68,0-28.35,0-43.97,0l25.01,97.52l-0.49,0.47l76.34,281.26h140.86
		l-72.96-243.2L1284.04,1164.85z"/>
	<path class="st1" d="M1405.94,108.36c13.47,0,24.38-10.92,24.38-24.38c0-13.46-10.92-24.38-24.38-24.38
		c-13.46,0-24.38,10.92-24.38,24.38C1381.56,97.44,1392.48,108.36,1405.94,108.36z"/>
	<path class="st2" d="M1473.67,1338.22l-76.34-281.26l0.49-0.47l-25.3-98.67c161.93-11.7,284.78-148.91,284.78-314.24
		C1657.29,346.74,1636.2,0,1430.32,0c-81.6,0-102.94,56.17-102.94,56.17s-63.84-2.4-130.03,21.67
		c-59.6,21.67-86.69,73.86-86.69,73.86l227.55,5.42c0,0,27.09,373.83-130.03,373.83S1170.26,37.92,910.21,37.92
		c-140.87,0-910.21,0-910.21,0s373.83,644.73,1121.5,644.73L791.01,877.7l-417.18-243.8c0,0-81.27,325.07,270.89,325.07
		c144.61,0,285.89,0,403.63,0l51.47,205.88l73.32-69.83l72.96,243.2h-140.87v37.92h552.62v-37.92H1473.67z M1405.94,59.6
		c13.47,0,24.38,10.92,24.38,24.38c0,13.47-10.92,24.38-24.38,24.38c-13.46,0-24.38-10.92-24.38-24.38
		C1381.56,70.51,1392.48,59.6,1405.94,59.6z M1289.46,1338.22l-76.34-281.26l0.49-0.47l-25.01-97.52c15.62,0,30.29,0,43.97,0
		l51.47,205.88l73.32-69.83l72.96,243.2H1289.46z"/>
	<g>
		
			<ellipse transform="matrix(0.7071 -0.7071 0.7071 0.7071 -871.1448 445.2864)" class="st2" cx="101.94" cy="1274.21" rx="101.94" ry="101.94"/>
		<path class="st1" d="M119.37,1266.93c6.62-2.72,10.65-6.89,13.29-10.06c5.05-5.8,7.11-12.91,7.11-19.65
			c0-5.43-1.5-16.28-11.04-23.76c-6.55-5.05-12.35-7.49-26.19-7.49h-7.01c-0.22-0.01-0.43-0.01-0.7-0.01H65.92v136.51h82.53v-26.2
			C148.45,1291.2,140.36,1274.34,119.37,1266.93z M129.76,1334.95h-14.89v-45.57H97.69v45.61H84.53v-122.23l13.51,0.01
			c5.06,0,12.73,1.12,18.16,7.86c2.82,3.42,4.56,7.95,5.16,12.5H97.69v6.73h23.89c-0.18,4.34-1.08,9.21-5.33,14.37
			c-3.74,4.68-9.89,9.03-18.58,9.03c-0.05,0-0.1,0-0.15,0v6.82c23.2,0,32.23,15.41,32.23,43.64V1334.95z"/>
	</g>
</g>
</svg>
